Coordinates
version=1
nRows=16
nColumns=36
inDegrees=yes

Units are S.I. units (second, meters, Newtons, ...)
If the header above contains a line with 'inDegrees', this indicates whether rotational values are in degrees (yes) or radians (no).

endheader
time	pelvis_tilt	pelvis_list	pelvis_rotation	pelvis_tx	pelvis_ty	pelvis_tz	hip_flexion_r	hip_adduction_r	hip_rotation_r	knee_angle_r	knee_angle_r_beta	ankle_angle_r	subtalar_angle_r	mtp_angle_r	hip_flexion_l	hip_adduction_l	hip_rotation_l	knee_angle_l	knee_angle_l_beta	ankle_angle_l	subtalar_angle_l	mtp_angle_l	lumbar_extension	lumbar_bending	lumbar_rotation	arm_flex_r	arm_add_r	arm_rot_r	elbow_flex_r	pro_sup_r	arm_flex_l	arm_add_l	arm_rot_l	elbow_flex_l	pro_sup_l
      7.99166667	    -89.77765892	      3.84766985	   -180.05449316	      0.97235713	      0.54319377	     -0.59702258	     11.81401854	     -4.84064456	    -12.44176912	     32.50573654	      0.56733213	      3.10711188	      0.32745928	     -7.49999987	      9.74637514	    -14.40001918	    -16.92710414	     35.60967057	      0.62150600	     14.23306356	     10.18911619	     -7.49999987	     -8.09130393	      4.64048110	      4.82767403	     38.98592312	     -8.62484408	     -3.09814248	     52.66463444	    101.70687133	     34.05364590	     -9.31499160	      2.50280620	     58.67643572	    108.85493760
      8.00000000	    -89.77862222	      4.25639880	   -180.03424094	      0.97196853	      0.54293653	     -0.59730899	     11.68783352	     -4.25755808	    -12.42751063	     32.24481526	      0.56277819	      2.92808586	     -0.18187800	     -7.49999987	      9.85355940	    -14.92706951	    -16.79994191	     35.76509201	      0.62421861	     14.46857516	     10.46830094	     -7.49999987	     -8.06613248	      5.10789234	      4.78240663	     38.90335953	     -8.65412500	     -3.01934120	     52.52921651	    102.46737596	     33.92985065	     -9.28896285	      2.57518841	     58.55154616	    108.73495268
      8.00833333	    -89.77863886	      4.48348223	   -180.06400915	      0.97137825	      0.54270685	     -0.59738292	     11.57888301	     -3.91235780	    -12.36420348	     32.05089992	      0.55939373	      2.99729609	     -0.34716000	     -7.49999987	      9.89468022	    -15.19651851	    -16.74986258	     35.85588581	      0.62580326	     14.71348313	     10.60022258	     -7.49999987	     -8.01911924	      5.37622895	      4.79811351	     38.76388014	     -8.68021077	     -2.89332385	     52.46016872	    102.40209466	     33.79099126	     -9.23518585	      2.60466606	     58.38820338	    108.43265618
      8.01666667	    -89.77855205	      4.42321661	   -180.16233509	      0.97065525	      0.54237004	     -0.59737060	     11.57290687	     -3.95156824	    -12.18733764	     32.06405771	      0.55962338	      3.34048094	     -0.35147737	     -7.49999987	      9.84393284	    -15.03226566	    -16.64600470	     35.80132192	      0.62485094	     14.98086412	     10.40511556	     -7.49999987	     -7.99813959	      5.35118617	      4.80415743	     38.56249644	     -8.57782984	     -2.71992347	     52.44053775	    103.04685444	     33.59372422	     -9.26198327	      2.79828650	     58.30347036	    108.32982511
      8.02500000	    -89.77984441	      4.45905641	   -180.13159716	      0.96993774	      0.54217823	     -0.59709187	     11.46481544	     -3.91360168	    -12.09434624	     31.93546929	      0.55737909	      3.58317238	     -0.27604565	     -7.49999987	      9.81889894	    -14.95991751	    -16.40158672	     35.74720959	      0.62390651	     15.22034941	     10.28817469	     -7.49999987	     -7.94341617	      5.45529706	      4.73250815	     38.37481279	     -8.60374421	     -2.64400958	     52.32573421	    102.69517036	     33.37825580	     -9.16104769	      2.87671931	     58.12547352	    108.72137267
      8.03333333	    -89.78126106	      4.92741735	   -180.39295660	      0.96918060	      0.54201549	     -0.59756679	     11.33363620	     -3.21860782	    -11.69442375	     31.65353952	      0.55245848	      3.72907899	     -0.51301357	     -7.49999987	      9.74687006	    -15.61041044	    -16.70119949	     35.87545665	      0.62614484	     15.70579393	     10.68461215	     -7.49999987	     -7.93372082	      6.04664664	      4.95948479	     38.24083816	     -8.65909163	     -2.51189897	     52.17156806	    103.26923119	     33.09949841	     -9.07593822	      2.98766500	     57.85965762	    108.21181249
      8.04166667	    -89.78292183	      4.63767246	   -180.44378399	      0.96817484	      0.54166749	     -0.59739325	     11.36273554	     -3.63095522	    -11.90315555	     31.78730411	      0.55479312	      4.24519088	     -0.12664902	     -7.49999987	      9.64107264	    -15.19494711	    -16.67641694	     35.75394438	      0.62402405	     15.95493603	     10.45861491	     -7.49999987	     -7.93170220	      5.71807247	      4.90876049	     38.09710657	     -8.72951222	     -2.31459697	     51.91349956	    102.26038308	     32.93108536	     -9.13071104	      3.03306509	     57.60746867	    108.80303375
      8.05000000	    -89.78483525	      4.32584045	   -180.46833747	      0.96709341	      0.54147780	     -0.59714718	     11.36146103	     -4.07006719	    -12.21760267	     31.89575320	      0.55668591	      4.76592495	      0.28758666	     -7.49999987	      9.48810177	    -14.69988201	    -16.58232629	     35.53716923	      0.62024061	     16.25280257	     10.22710532	     -7.49999987	     -7.89111199	      5.35496668	      4.82534658	     37.86501164	     -8.73953342	     -2.19320616	     51.63168878	    103.11820384	     32.76913495	     -9.16629565	      3.21434010	     57.29344853	    108.73260290
      8.05833333	    -89.78579663	      4.80239096	   -180.59734216	      0.96595586	      0.54122734	     -0.59752048	     11.18350956	     -3.37855629	    -12.05633509	     31.58911693	      0.55133410	      4.96793902	      0.08906459	     -7.49999987	      9.44891715	    -15.37208033	    -16.88733587	     35.67095867	      0.62257568	     16.72172530	     10.57901817	     -7.49999987	     -7.88062089	      5.93090954	      4.97045523	     37.62395008	     -8.89760614	     -2.01513948	     51.43165758	    102.75976912	     32.51330329	     -9.05522046	      3.20479016	     57.02044001	    109.15756813
      8.06666667	    -89.78924526	      3.83804955	   -180.70315582	      0.96471132	      0.54059487	     -0.59695349	     11.39981773	     -4.66330487	    -12.03887122	     32.07822972	      0.55987073	      5.86920274	      0.72024603	     -7.49999987	      9.20248491	    -14.00847089	    -16.79074587	     35.25631148	      0.61533872	     16.81371830	      9.64857805	     -7.49999987	     -7.87709985	      4.80818794	      4.94086400	     37.29143114	     -8.61219072	     -2.13503629	     51.07028533	    102.43733105	     32.43433594	     -9.21210903	      3.50412235	     56.67480631	    109.26186251
      8.07500000	    -89.78764074	      6.04894466	   -180.87249840	      0.96355858	      0.54037566	     -0.59876352	     10.76328786	     -1.48613826	    -11.25300861	     30.81872125	      0.53788816	      5.30250596	     -1.02867070	     -7.49999987	      9.42307249	    -17.17297531	    -17.53440564	     36.04720932	      0.62914249	     17.71136708	     11.48842850	     -7.49999987	     -7.91819699	      7.40469337	      5.16054473	     37.27247865	     -8.86231258	     -1.33725184	     50.62938923	    101.55306221	     31.88178407	     -8.95244315	      3.28362443	     56.31982195	    108.44235746
      8.08333333	    -89.78918857	      5.95388156	   -180.94519729	      0.96234901	      0.53986182	     -0.59883946	     10.73539195	     -1.54946761	    -11.09888968	     30.82723181	      0.53803669	      5.75090457	     -0.99631039	     -7.49999987	      9.30399083	    -16.98921603	    -17.56235372	     35.89704675	      0.62652166	     18.09656074	     11.57700346	     -7.49999987	     -7.95566196	      7.30803504	      5.12953583	     37.09313465	     -8.89430719	     -1.12117349	     50.15410227	    101.60269724	     31.64483393	     -8.93776848	      3.34004884	     55.88962452	    108.51426656
      8.09166667	    -89.78797625	      6.42702511	   -181.11059073	      0.96117656	      0.53929105	     -0.59952290	     10.62509536	     -0.82070869	    -10.58846071	     30.61430012	      0.53432034	      5.89035481	     -1.20912753	     -7.49999987	      9.26875334	    -17.63217957	    -17.87994205	     36.04195288	      0.62905075	     18.62814829	     11.86216430	     -7.49999987	     -8.01873971	      7.86027698	      5.24295791	     36.97520049	     -8.94631943	     -1.01904054	     49.65154659	    102.19178536	     31.34960183	     -8.80902418	      3.24633992	     55.41591832	    108.36205173
      8.10000000	    -89.78733408	      6.92468334	   -181.24054710	      0.95986958	      0.53865111	     -0.60034264	     10.50710477	     -0.09999803	    -10.27476861	     30.40192054	      0.53061361	      6.14334905	     -1.40157357	     -7.49999987	      9.23924549	    -18.36049983	    -18.20506872	     36.22126682	      0.63218037	     19.15790299	     12.23752680	     -7.49999987	     -8.10073546	      8.40438440	      5.36096131	     36.78335978	     -8.98493424	     -0.93985427	     49.21567621	    101.97681662	     31.09880704	     -8.72299571	      3.25755058	     54.86186796	    108.28708745
      8.10833333	    -89.78663197	      7.67873856	   -181.22741785	      0.95848451	      0.53813768	     -0.60078574	     10.19462822	      0.97120478	     -9.99134510	     29.83937261	      0.52079530	      6.21127999	     -1.90438358	     -7.49999987	      9.24088201	    -19.30924476	    -18.08666461	     36.27515560	      0.63312090	     19.66739671	     12.62126640	     -7.49999987	     -8.14572380	      9.28834616	      5.36642341	     36.53979468	     -9.07150219	     -0.85491436	     48.79698006	    101.89394543	     30.74075820	     -8.61043703	      3.33178224	     54.34609566	    108.18777640
      8.11666667	    -89.78714234	      8.09743345	   -181.40950933	      0.95714490	      0.53750787	     -0.60120494	     10.02693054	      1.61580878	     -9.54474711	     29.52029579	      0.51522636	      6.40672389	     -2.08111924	     -7.49999987	      9.08383200	    -19.86147024	    -18.23066685	     36.16670168	      0.63122802	     20.20261105	     12.88926855	     -7.49999987	     -8.22761669	      9.79350719	      5.52908519	     36.26174515	     -9.08511112	     -0.86988586	     48.31801629	    101.81558403	     30.39882814	     -8.49077425	      3.43740254	     53.74985492	    108.02916581
